<svg xmlns="http://www.w3.org/2000/svg" viewBox="0 0 512 512">
  <rect width="512" height="512" rx="100" fill="#2563eb"/>
  <path d="M126.8 136c-5.7 0-10.9 3.2-13.6 8.4l-64 128c-4.4 8.8 2 19.6 11.9 19.6h28.1c5.8 0 11.1-3.3 13.7-8.6l32.5-65 32.5 65c2.6 5.3 7.9 8.6 13.7 8.6h28.1c9.9 0 16.3-10.8 11.9-19.6l-64-128c-2.7-5.2-7.9-8.4-13.6-8.4h-17.2zm160 0c-5.7 0-10.9 3.2-13.6 8.4l-64 128c-4.4 8.8 2 19.6 11.9 19.6h28.1c5.8 0 11.1-3.3 13.7-8.6l32.5-65 32.5 65c2.6 5.3 7.9 8.6 13.7 8.6h28.1c9.9 0 16.3-10.8 11.9-19.6l-64-128c-2.7-5.2-7.9-8.4-13.6-8.4h-17.2z" fill="#ffffff" transform="translate(68, 80) scale(1.3)"/>
   <path d="M370 330c-15 0-35-10-45-25-10 15-30 25-45 25-20 0-40-20-40-50h20c0 15 10 30 20 30 10 0 20-10 25-25 5 15 15 25 25 25 10 0 20-15 20-30h20c0 30-20 50-40 50z" fill="#ffffff" opacity="0.9"/>
   <text x="50%" y="420" font-family="Arial, sans-serif" font-size="60" font-weight="bold" fill="white" text-anchor="middle" letter-spacing="2">LOCOTOS</text>
</svg>
